<mxfile host="app.diagrams.net" agent="Mozilla/5.0 (Windows NT 10.0; Win64; x64) AppleWebKit/537.36 (KHTML, like Gecko) Chrome/132.0.0.0 Safari/537.36" version="26.0.10">
  <diagram name="Page-1" id="OGYrbAQMxrgfziWc465z">
    <mxGraphModel dx="1105" dy="1649" grid="1" gridSize="10" guides="1" tooltips="1" connect="1" arrows="1" fold="1" page="1" pageScale="1" pageWidth="850" pageHeight="1100" math="0" shadow="0">
      <root>
        <mxCell id="0" />
        <mxCell id="1" parent="0" />
        <mxCell id="tvPQ_Lbjxny-bq690Bdw-1" value="&lt;b&gt;&lt;font face=&quot;Times New Roman&quot; style=&quot;font-size: 16px;&quot;&gt;USERS&lt;/font&gt;&lt;/b&gt;&lt;div&gt;&lt;font face=&quot;Times New Roman&quot;&gt;&lt;span style=&quot;font-size: 16px;&quot;&gt;&lt;b&gt;&lt;br&gt;&lt;/b&gt;&lt;/span&gt;&lt;/font&gt;&lt;div&gt;1.User_ID (PK) INT&lt;/div&gt;&lt;div&gt;2.Email Varchar(30)&lt;/div&gt;&lt;div&gt;3.Password&amp;nbsp; &amp;nbsp; &amp;nbsp; &amp;nbsp; &amp;nbsp; Varchar(30)&lt;/div&gt;&lt;/div&gt;" style="whiteSpace=wrap;html=1;aspect=fixed;align=left;fillColor=#d5e8d4;strokeColor=#82b366;" parent="1" vertex="1">
          <mxGeometry x="20" y="-600" width="180" height="180" as="geometry" />
        </mxCell>
        <mxCell id="tvPQ_Lbjxny-bq690Bdw-4" value="&lt;font style=&quot;font-size: 16px;&quot; face=&quot;Times New Roman&quot;&gt;&lt;b&gt;INCOME&lt;/b&gt;&lt;/font&gt;&lt;div&gt;&lt;font face=&quot;Times New Roman&quot;&gt;&lt;span style=&quot;font-size: 16px;&quot;&gt;&lt;br&gt;&lt;/span&gt;&lt;/font&gt;&lt;div&gt;&lt;span style=&quot;background-color: initial;&quot;&gt;1. income_id INT&lt;/span&gt;&lt;div&gt;&lt;div&gt;2. User_ID (FK)&lt;/div&gt;&lt;div&gt;3. Amount Double(8,2)&lt;/div&gt;&lt;div&gt;4. Source_Of_income Varchar(50)&lt;/div&gt;&lt;div&gt;5. Date_recieved DATE&amp;nbsp;&lt;/div&gt;&lt;/div&gt;&lt;/div&gt;&lt;/div&gt;&lt;div&gt;&lt;br&gt;&lt;/div&gt;" style="whiteSpace=wrap;html=1;aspect=fixed;align=left;fillColor=#d5e8d4;strokeColor=#82b366;" parent="1" vertex="1">
          <mxGeometry x="580" y="-610" width="180" height="180" as="geometry" />
        </mxCell>
        <mxCell id="tvPQ_Lbjxny-bq690Bdw-6" value="&lt;font face=&quot;Times New Roman&quot; style=&quot;font-size: 16px;&quot;&gt;&lt;b&gt;BUDGET&lt;/b&gt;&lt;/font&gt;&lt;div&gt;&lt;font face=&quot;Times New Roman&quot;&gt;&lt;span style=&quot;font-size: 16px;&quot;&gt;&lt;br&gt;&lt;/span&gt;&lt;/font&gt;&lt;div&gt;1. Budget_ID INT&lt;/div&gt;&lt;div&gt;2. User_ID (FK)&lt;/div&gt;&lt;div&gt;3. Total_Budget Double(8,2)&lt;/div&gt;&lt;div&gt;4. Needs_Budget Double(8,2)&lt;/div&gt;&lt;div&gt;5. Wants_Budget Double(8,2)&lt;/div&gt;&lt;/div&gt;&lt;div&gt;6 Income_ID (FK)&lt;/div&gt;" style="whiteSpace=wrap;html=1;aspect=fixed;align=left;fillColor=#d5e8d4;strokeColor=#82b366;" parent="1" vertex="1">
          <mxGeometry x="580" y="-320" width="180" height="180" as="geometry" />
        </mxCell>
        <mxCell id="tvPQ_Lbjxny-bq690Bdw-15" value="&lt;div style=&quot;text-align: justify;&quot;&gt;&lt;span style=&quot;background-color: initial;&quot;&gt;&lt;b&gt;NOTIFICATIONS&lt;/b&gt;&lt;/span&gt;&lt;/div&gt;&lt;div style=&quot;text-align: justify;&quot;&gt;&lt;span style=&quot;background-color: initial;&quot;&gt;&lt;b&gt;&lt;br&gt;&lt;/b&gt;&lt;/span&gt;&lt;/div&gt;&lt;div style=&quot;text-align: justify;&quot;&gt;1. Notification_ID INT&lt;/div&gt;&lt;div style=&quot;text-align: justify;&quot;&gt;2. User_ID (FK)&lt;/div&gt;&lt;div style=&quot;text-align: justify;&quot;&gt;3. Message TEXT&lt;/div&gt;&lt;div style=&quot;text-align: justify;&quot;&gt;4. IsRead enum (&#39;y&#39;, &#39;n&#39;)&amp;nbsp;&lt;/div&gt;" style="whiteSpace=wrap;html=1;aspect=fixed;align=left;fillColor=#d5e8d4;strokeColor=#82b366;" parent="1" vertex="1">
          <mxGeometry x="20" y="-310" width="190" height="190" as="geometry" />
        </mxCell>
        <mxCell id="tvPQ_Lbjxny-bq690Bdw-16" value="&lt;div style=&quot;text-align: justify;&quot;&gt;&lt;span style=&quot;font-size: 16px; font-family: &amp;quot;Times New Roman&amp;quot;; background-color: initial;&quot;&gt;&lt;b&gt;SAVING GOALS&lt;/b&gt;&lt;/span&gt;&lt;/div&gt;&lt;div style=&quot;text-align: justify;&quot;&gt;1. Goal_ID INT&lt;/div&gt;&lt;div style=&quot;text-align: justify;&quot;&gt;2. User_ID (FK)&lt;/div&gt;&lt;div style=&quot;text-align: justify;&quot;&gt;3. Goal_Name Varchar(50)&lt;/div&gt;&lt;div style=&quot;text-align: justify;&quot;&gt;4. Target_Amt Double(8,2)&lt;/div&gt;&lt;div style=&quot;text-align: justify;&quot;&gt;5. Current_Amt Double(8,2)&lt;/div&gt;&lt;div style=&quot;text-align: justify;&quot;&gt;6. Deadline DATE&lt;/div&gt;&lt;div style=&quot;text-align: justify;&quot;&gt;7 Income_ID (FK)&lt;/div&gt;&lt;div style=&quot;text-align: justify;&quot;&gt;&lt;br&gt;&lt;/div&gt;" style="whiteSpace=wrap;html=1;aspect=fixed;align=left;fillColor=#d5e8d4;strokeColor=#82b366;" parent="1" vertex="1">
          <mxGeometry x="300" y="-330" width="190" height="190" as="geometry" />
        </mxCell>
        <mxCell id="tvPQ_Lbjxny-bq690Bdw-5" value="&lt;font face=&quot;Times New Roman&quot; style=&quot;font-size: 16px;&quot;&gt;&lt;b&gt;EXPENSES&lt;/b&gt;&lt;/font&gt;&lt;div&gt;&lt;font face=&quot;Times New Roman&quot;&gt;&lt;span style=&quot;font-size: 16px;&quot;&gt;&lt;br&gt;&lt;/span&gt;&lt;/font&gt;&lt;div&gt;1. Expense_ID&amp;nbsp; INT&lt;/div&gt;&lt;div&gt;2. User_ID (FK)&lt;/div&gt;&lt;div&gt;3. Amount Double(8,2)&lt;/div&gt;&lt;div&gt;4. Category&amp;nbsp; Enum(Needs, Wants) NOT NULL&lt;/div&gt;&lt;div&gt;5. Description TEXT&lt;/div&gt;&lt;div&gt;6.Date_Spent DATE&lt;/div&gt;&lt;div&gt;7 Budget_ID(FK)&lt;/div&gt;&lt;div&gt;8 Income_ID (FK)&lt;/div&gt;&lt;div&gt;&lt;br&gt;&lt;/div&gt;&lt;/div&gt;" style="whiteSpace=wrap;html=1;aspect=fixed;align=left;fillColor=#d5e8d4;strokeColor=#82b366;" parent="1" vertex="1">
          <mxGeometry x="570" y="-70" width="180" height="180" as="geometry" />
        </mxCell>
        <mxCell id="5IiQjqGe0bK2D4x8_UVF-1" value="" style="endArrow=classic;html=1;rounded=0;entryX=0;entryY=0.319;entryDx=0;entryDy=0;entryPerimeter=0;" edge="1" parent="1" source="tvPQ_Lbjxny-bq690Bdw-1" target="tvPQ_Lbjxny-bq690Bdw-4">
          <mxGeometry width="50" height="50" relative="1" as="geometry">
            <mxPoint x="560" y="220" as="sourcePoint" />
            <mxPoint x="560" as="targetPoint" />
            <Array as="points" />
          </mxGeometry>
        </mxCell>
        <mxCell id="5IiQjqGe0bK2D4x8_UVF-2" value="" style="endArrow=classic;html=1;rounded=0;exitX=1;exitY=0.75;exitDx=0;exitDy=0;" edge="1" parent="1" source="tvPQ_Lbjxny-bq690Bdw-1">
          <mxGeometry width="50" height="50" relative="1" as="geometry">
            <mxPoint x="280" y="-400" as="sourcePoint" />
            <mxPoint x="400" y="-330" as="targetPoint" />
            <Array as="points">
              <mxPoint x="400" y="-330" />
            </Array>
          </mxGeometry>
        </mxCell>
        <mxCell id="5IiQjqGe0bK2D4x8_UVF-3" value="" style="endArrow=classic;html=1;rounded=0;exitX=0.443;exitY=1.018;exitDx=0;exitDy=0;exitPerimeter=0;entryX=0.549;entryY=0.005;entryDx=0;entryDy=0;entryPerimeter=0;" edge="1" parent="1" source="tvPQ_Lbjxny-bq690Bdw-1" target="tvPQ_Lbjxny-bq690Bdw-15">
          <mxGeometry width="50" height="50" relative="1" as="geometry">
            <mxPoint x="600" y="-190" as="sourcePoint" />
            <mxPoint x="120" y="-320" as="targetPoint" />
          </mxGeometry>
        </mxCell>
        <mxCell id="5IiQjqGe0bK2D4x8_UVF-5" value="" style="endArrow=classic;html=1;rounded=0;exitX=1;exitY=0.5;exitDx=0;exitDy=0;entryX=0.052;entryY=0.007;entryDx=0;entryDy=0;entryPerimeter=0;" edge="1" parent="1" source="tvPQ_Lbjxny-bq690Bdw-1" target="tvPQ_Lbjxny-bq690Bdw-6">
          <mxGeometry width="50" height="50" relative="1" as="geometry">
            <mxPoint x="210" y="-500" as="sourcePoint" />
            <mxPoint x="650" y="-280" as="targetPoint" />
          </mxGeometry>
        </mxCell>
        <mxCell id="5IiQjqGe0bK2D4x8_UVF-6" value="" style="endArrow=classic;html=1;rounded=0;entryX=0.597;entryY=0.025;entryDx=0;entryDy=0;entryPerimeter=0;exitX=0.5;exitY=1;exitDx=0;exitDy=0;" edge="1" parent="1" source="tvPQ_Lbjxny-bq690Bdw-4" target="tvPQ_Lbjxny-bq690Bdw-6">
          <mxGeometry width="50" height="50" relative="1" as="geometry">
            <mxPoint x="600" y="-230" as="sourcePoint" />
            <mxPoint x="650" y="-280" as="targetPoint" />
          </mxGeometry>
        </mxCell>
        <mxCell id="5IiQjqGe0bK2D4x8_UVF-7" value="" style="endArrow=classic;html=1;rounded=0;entryX=0.5;entryY=0;entryDx=0;entryDy=0;exitX=0.366;exitY=0.997;exitDx=0;exitDy=0;exitPerimeter=0;" edge="1" parent="1" source="tvPQ_Lbjxny-bq690Bdw-6" target="tvPQ_Lbjxny-bq690Bdw-5">
          <mxGeometry width="50" height="50" relative="1" as="geometry">
            <mxPoint x="600" y="-200" as="sourcePoint" />
            <mxPoint x="650" y="-250" as="targetPoint" />
          </mxGeometry>
        </mxCell>
        <mxCell id="5IiQjqGe0bK2D4x8_UVF-8" value="" style="endArrow=classic;html=1;rounded=0;exitX=0.75;exitY=1;exitDx=0;exitDy=0;" edge="1" parent="1" source="tvPQ_Lbjxny-bq690Bdw-1">
          <mxGeometry width="50" height="50" relative="1" as="geometry">
            <mxPoint x="600" y="-240" as="sourcePoint" />
            <mxPoint x="570" y="20" as="targetPoint" />
            <Array as="points">
              <mxPoint x="220" y="-350" />
              <mxPoint x="260" y="-80" />
              <mxPoint x="570" y="20" />
            </Array>
          </mxGeometry>
        </mxCell>
        <mxCell id="5IiQjqGe0bK2D4x8_UVF-9" value="" style="endArrow=classic;html=1;rounded=0;exitX=0;exitY=0.5;exitDx=0;exitDy=0;" edge="1" parent="1" source="tvPQ_Lbjxny-bq690Bdw-4" target="tvPQ_Lbjxny-bq690Bdw-16">
          <mxGeometry width="50" height="50" relative="1" as="geometry">
            <mxPoint x="470" y="-370" as="sourcePoint" />
            <mxPoint x="520" y="-420" as="targetPoint" />
          </mxGeometry>
        </mxCell>
      </root>
    </mxGraphModel>
  </diagram>
</mxfile>
